<?xml version="1.0" encoding="UTF-8" standalone="no"?>
<!-- Created with Inkscape (http://www.inkscape.org/) -->

<svg
   xmlns:dc="http://purl.org/dc/elements/1.1/"
   xmlns:cc="http://creativecommons.org/ns#"
   xmlns:rdf="http://www.w3.org/1999/02/22-rdf-syntax-ns#"
   xmlns:svg="http://www.w3.org/2000/svg"
   xmlns="http://www.w3.org/2000/svg"
   xmlns:xlink="http://www.w3.org/1999/xlink"
   xmlns:sodipodi="http://sodipodi.sourceforge.net/DTD/sodipodi-0.dtd"
   xmlns:inkscape="http://www.inkscape.org/namespaces/inkscape"
   width="499.17599"
   height="333.37814"
   viewBox="0 0 140.87856 94.086723"
   version="1.1"
   id="svg5527"
   inkscape:version="0.91 r13725"
   sodipodi:docname="binoculars.svg">
  <defs
     id="defs5521">
    <linearGradient
       inkscape:collect="always"
       xlink:href="#linearGradient5582"
       id="linearGradient5998"
       gradientUnits="userSpaceOnUse"
       x1="-5414.9116"
       y1="23035.297"
       x2="-5139.0967"
       y2="22341.447" />
    <linearGradient
       inkscape:collect="always"
       id="linearGradient5582">
      <stop
         style="stop-color:#ffffff;stop-opacity:1;"
         offset="0"
         id="stop5578" />
      <stop
         style="stop-color:#ffffff;stop-opacity:0;"
         offset="1"
         id="stop5580" />
    </linearGradient>
  </defs>
  <sodipodi:namedview
     id="base"
     pagecolor="#ffffff"
     bordercolor="#666666"
     borderopacity="1.0"
     inkscape:pageopacity="0.0"
     inkscape:pageshadow="2"
     inkscape:zoom="0.94193265"
     inkscape:cx="420.82118"
     inkscape:cy="358.75627"
     inkscape:document-units="mm"
     inkscape:current-layer="layer1"
     showgrid="false"
     inkscape:snap-global="false"
     inkscape:window-width="1916"
     inkscape:window-height="1035"
     inkscape:window-x="4"
     inkscape:window-y="1"
     inkscape:window-maximized="1"
     fit-margin-top="0"
     fit-margin-left="0"
     fit-margin-right="0"
     fit-margin-bottom="0"
     units="px" />
  <metadata
     id="metadata5524">
    <rdf:RDF>
      <cc:Work
         rdf:about="">
        <dc:format>image/svg+xml</dc:format>
        <dc:type
           rdf:resource="http://purl.org/dc/dcmitype/StillImage" />
        <dc:title></dc:title>
      </cc:Work>
    </rdf:RDF>
  </metadata>
  <g
     inkscape:label="Layer 1"
     inkscape:groupmode="layer"
     id="layer1"
     transform="translate(70.659093,14.608141)">
    <g
       id="g5996"
       transform="matrix(0.12173279,-0.02306982,0.02779398,0.10104182,-37.229018,-583.41188)"
       inkscape:export-xdpi="323.01001"
       inkscape:export-ydpi="323.01001">
      <path
         inkscape:connector-curvature="0"
         id="path5915"
         d="m -1063.381,5675.5894 a 76.06787,76.06787 0 0 0 -73.0361,55.0138 l -62.9761,0 c -40.3427,0 -72.8211,32.4782 -72.8211,72.8211 l 0,52.9612 c 0,40.3426 32.4784,72.8188 72.8211,72.8188 l 241.63142,0 c 40.34279,0 72.82125,-32.4762 72.82125,-72.8188 l 0,-52.9612 c 0,-40.3429 -32.47846,-72.8211 -72.82125,-72.8211 l -32.56047,0 a 76.06787,76.06787 0 0 0 -73.05875,-55.0138 z"
         style="opacity:1;fill:#aea7d3;fill-opacity:1;stroke:#1c1b3b;stroke-width:12;stroke-linecap:round;stroke-linejoin:round;stroke-miterlimit:4;stroke-dasharray:none;stroke-dashoffset:139.54022217;stroke-opacity:1;paint-order:fill markers stroke" />
      <path
         style="opacity:0.22400004;fill:#1c1b3b;fill-opacity:1;stroke:none;stroke-width:45.35433197;stroke-linecap:round;stroke-linejoin:round;stroke-miterlimit:4;stroke-dasharray:none;stroke-dashoffset:0;stroke-opacity:1;paint-order:fill markers stroke"
         d="m -4493.75,21947.52 -93.75,225 77.5039,237.072 890.1094,0 c 33.8107,0 66.1539,-6.049 96.0273,-17.106 l 11.3594,-257.466 -1000,-6.25 z"
         transform="scale(0.26458333,0.26458333)"
         id="path5917"
         inkscape:connector-curvature="0" />
      <path
         inkscape:connector-curvature="0"
         id="path5919"
         d="m -1292.3096,5446.0794 a 94.285951,94.285951 0 0 0 -92.2104,74.7807 l -49.8862,126.993 221.7715,76.1293 12.3251,-163.2939 a 94.285951,94.285951 0 0 0 2.2854,-20.3238 94.285951,94.285951 0 0 0 -94.2854,-94.2853 z"
         style="opacity:1;fill:#aea7d3;fill-opacity:1;stroke:#1c1b3b;stroke-width:12;stroke-linecap:round;stroke-linejoin:round;stroke-miterlimit:4;stroke-dasharray:none;stroke-dashoffset:139.54022217;stroke-opacity:1;paint-order:fill markers stroke" />
      <path
         style="opacity:0.22400004;fill:#1c1b3b;fill-opacity:1;stroke:none;stroke-width:45.35433197;stroke-linecap:round;stroke-linejoin:round;stroke-miterlimit:4;stroke-dasharray:none;stroke-dashoffset:0;stroke-opacity:1;paint-order:fill markers stroke"
         d="m -4569.373,20773.709 -5.627,180.061 -68.75,275 81.291,130.558 25.8555,-342.553 a 356.35635,356.35635 0 0 0 8.6387,-76.814 356.35635,356.35635 0 0 0 -41.4082,-166.252 z"
         transform="scale(0.26458333,0.26458333)"
         id="path5921"
         inkscape:connector-curvature="0" />
      <path
         inkscape:connector-curvature="0"
         id="path5923"
         d="m -1331.7782,5545.646 a 141.35913,141.77288 0 0 0 -126.8979,79.7088 l -0.045,-0.026 -152.3491,286.646 425.9799,110.0046 -8.191,-305.1484 -0.2535,-0.088 a 141.35913,141.77288 0 0 0 3.1157,-29.334 141.35913,141.77288 0 0 0 -141.3589,-141.773 z"
         style="opacity:1;fill:#30cdfd;fill-opacity:1;stroke:#1c1b3b;stroke-width:12;stroke-linecap:round;stroke-linejoin:round;stroke-miterlimit:4;stroke-dasharray:none;stroke-dashoffset:139.54022217;stroke-opacity:1;paint-order:fill markers stroke" />
      <path
         style="opacity:0.22400004;fill:#1c1b3b;fill-opacity:1;stroke:none;stroke-width:45.35433197;stroke-linecap:round;stroke-linejoin:round;stroke-miterlimit:4;stroke-dasharray:none;stroke-dashoffset:0;stroke-opacity:1;paint-order:fill markers stroke"
         d="m -4662.5,21122.52 c 0,0 93.9792,170.495 87.5,262.5 -28.6452,406.763 -75.0247,1125.011 -75,1125 l 80.8711,226.962 90.0469,23.254 -30.9571,-1153.316 -0.9589,-0.332 c 7.7586,-36.445 11.705,-73.603 11.7753,-110.869 -0.2363,-115.872 -37.917,-228.544 -107.3925,-321.125 z"
         transform="scale(0.26458333,0.26458333)"
         id="path5925"
         inkscape:connector-curvature="0"
         sodipodi:nodetypes="cscccccccc" />
      <circle
         r="225.08255"
         cy="6002.0259"
         cx="-1407.9259"
         id="circle5927"
         style="opacity:1;fill:#e7e5f1;fill-opacity:1;stroke:#1c1b3b;stroke-width:12;stroke-linecap:round;stroke-linejoin:round;stroke-miterlimit:4;stroke-dasharray:none;stroke-dashoffset:139.54022217;stroke-opacity:1;paint-order:fill markers stroke" />
      <circle
         style="opacity:1;fill:#b7c8c4;fill-opacity:1;stroke:#1c1b3b;stroke-width:12;stroke-linecap:round;stroke-linejoin:round;stroke-miterlimit:4;stroke-dasharray:none;stroke-dashoffset:139.54022217;stroke-opacity:1;paint-order:fill markers stroke"
         id="circle5929"
         cx="-1407.9259"
         cy="6002.0259"
         r="146.40691" />
      <path
         inkscape:connector-curvature="0"
         id="path5931"
         d="m -840.41019,5446.0794 a 94.285951,94.285951 0 0 0 -94.28536,94.2853 94.285951,94.285951 0 0 0 2.28529,20.3238 l 12.32286,163.2939 221.77382,-76.1293 -50.05599,-127.6581 a 94.285951,94.285951 0 0 0 -92.04062,-74.1156 z"
         style="opacity:1;fill:#aea7d3;fill-opacity:1;stroke:#1c1b3b;stroke-width:12;stroke-linecap:round;stroke-linejoin:round;stroke-miterlimit:4;stroke-dasharray:none;stroke-dashoffset:139.54022217;stroke-opacity:1;paint-order:fill markers stroke" />
      <path
         style="opacity:0.22400004;fill:#1c1b3b;fill-opacity:1;stroke:none;stroke-width:45.35433197;stroke-linecap:round;stroke-linejoin:round;stroke-miterlimit:4;stroke-dasharray:none;stroke-dashoffset:0;stroke-opacity:1;paint-order:fill markers stroke"
         d="m -3495.3887,20781.562 a 356.35635,356.35635 0 0 0 -37.3183,158.399 356.35635,356.35635 0 0 0 8.6367,76.814 l 30.5117,404.311 c 29.6547,-13.688 49.8086,-23.566 49.8086,-23.566 l -6.25,-212.5 z"
         transform="scale(0.26458333,0.26458333)"
         id="path5933"
         inkscape:connector-curvature="0" />
      <path
         style="opacity:0.81000001;fill:none;fill-opacity:1;stroke:#ffffff;stroke-width:12;stroke-linecap:round;stroke-linejoin:round;stroke-miterlimit:4;stroke-dasharray:none;stroke-dashoffset:0;stroke-opacity:1;paint-order:fill markers stroke"
         d="m -945.8854,5758.1654 -52.08985,0 c -27.68955,-48.8095 -38.29445,-52.0888 -52.08985,-54.5703"
         id="path5935"
         inkscape:connector-curvature="0"
         sodipodi:nodetypes="ccc" />
      <path
         inkscape:connector-curvature="0"
         id="path5937"
         d="m -801.35567,5545.646 a 141.7709,141.7709 0 0 0 -141.77083,141.7729 141.7709,141.7709 0 0 0 3.66564,31.4544 l -9.3382,306.6279 437.68254,-91.2805 -158.56232,-299.0026 a 141.7709,141.7709 0 0 0 -131.67683,-89.5721 z"
         style="opacity:1;fill:#30cdfd;fill-opacity:1;stroke:#1c1b3b;stroke-width:12;stroke-linecap:round;stroke-linejoin:round;stroke-miterlimit:4;stroke-dasharray:none;stroke-dashoffset:139.54022217;stroke-opacity:1;paint-order:fill markers stroke" />
      <path
         style="opacity:0.22400004;fill:#1c1b3b;fill-opacity:1;stroke:none;stroke-width:45.35433197;stroke-linecap:round;stroke-linejoin:round;stroke-miterlimit:4;stroke-dasharray:none;stroke-dashoffset:0;stroke-opacity:1;paint-order:fill markers stroke"
         d="m -3376.4199,21088.24 c -119.332,101.759 -188.0936,250.688 -188.1524,407.516 0.1636,40.021 4.8105,79.897 13.8535,118.883 l -31.3535,1029.558 144.5723,-221.677 6.25,-781.25 c 0,0 -23.7001,-202.62 -12.5,-303.125 9.5548,-85.741 67.3301,-249.905 67.3301,-249.905 z"
         transform="scale(0.26458333,0.26458333)"
         id="path5939"
         inkscape:connector-curvature="0"
         sodipodi:nodetypes="ccccccac" />
      <circle
         transform="scale(-1,1)"
         style="opacity:1;fill:#e7e5f1;fill-opacity:1;stroke:#1c1b3b;stroke-width:12;stroke-linecap:round;stroke-linejoin:round;stroke-miterlimit:4;stroke-dasharray:none;stroke-dashoffset:139.54022217;stroke-opacity:1;paint-order:fill markers stroke"
         id="circle5941"
         cx="724.79425"
         cy="6002.0259"
         r="225.08255" />
      <circle
         transform="scale(-1,1)"
         r="146.40691"
         cy="6002.0259"
         cx="724.79425"
         id="circle5943"
         style="opacity:1;fill:#b7c8c4;fill-opacity:1;stroke:#1c1b3b;stroke-width:12;stroke-linecap:round;stroke-linejoin:round;stroke-miterlimit:4;stroke-dasharray:none;stroke-dashoffset:139.54022217;stroke-opacity:1;paint-order:fill markers stroke" />
      <path
         style="opacity:0.51999996;fill:url(#linearGradient5998);fill-opacity:1;stroke:none;stroke-width:45.35433197;stroke-linecap:round;stroke-linejoin:round;stroke-miterlimit:4;stroke-dasharray:none;stroke-dashoffset:0;stroke-opacity:1;paint-order:fill markers stroke"
         d="m -5197.2266,22146.113 -504.9472,939.199 a 553.34894,553.34894 0 0 0 267.3066,140.899 l 507.9024,-929.35 a 553.34894,553.34894 0 0 0 -270.2618,-150.748 z"
         transform="scale(0.26458333,0.26458333)"
         id="path5945"
         inkscape:connector-curvature="0" />
      <path
         style="opacity:0.51999996;fill:#ffffff;fill-opacity:1;stroke:none;stroke-width:45.35433197;stroke-linecap:round;stroke-linejoin:round;stroke-miterlimit:4;stroke-dasharray:none;stroke-dashoffset:0;stroke-opacity:1;paint-order:fill markers stroke"
         d="m -2739.3789,22131.473 a 553.34894,553.34894 0 0 0 -131.3633,16.502 l -388.8906,723.334 a 553.34894,553.34894 0 0 0 177.9961,248.189 553.34895,553.34895 0 0 0 28.0195,6.713 l 507.9024,-929.35 a 553.34895,553.34895 0 0 0 -53.6387,-47.017 553.34894,553.34894 0 0 0 -140.0254,-18.371 z"
         transform="scale(0.26458333,0.26458333)"
         id="path5947"
         inkscape:connector-curvature="0" />
      <path
         style="opacity:0.51999996;fill:#ffffff;fill-opacity:1;stroke:none;stroke-width:47.26451111;stroke-linecap:round;stroke-linejoin:round;stroke-miterlimit:4;stroke-dasharray:none;stroke-dashoffset:0;stroke-opacity:1;paint-order:fill markers stroke"
         d="m -2403.1758,22245.816 -508.5664,964.102 a 553.34894,553.34894 0 0 0 154.9785,27.639 l 467.3907,-873.983 a 553.34894,553.34894 0 0 0 -113.8028,-117.758 z"
         transform="scale(0.26458333,0.26458333)"
         id="path5949"
         inkscape:connector-curvature="0" />
      <path
         style="opacity:0.22400004;fill:#1c1b3b;fill-opacity:1;stroke:none;stroke-width:12;stroke-linecap:round;stroke-linejoin:round;stroke-miterlimit:4;stroke-dasharray:none;stroke-dashoffset:0;stroke-opacity:1;paint-order:fill markers stroke"
         d="m -1240.2344,5573.7839 -23.151,262.9297 -26.4583,-16.5365 36.3802,-248.0469 z"
         id="path5951"
         inkscape:connector-curvature="0" />
      <path
         style="opacity:0.13265309;fill:#1c1b3b;fill-opacity:1;stroke:#1c1b3b;stroke-width:45.35433197;stroke-linecap:round;stroke-linejoin:round;stroke-miterlimit:4;stroke-dasharray:none;stroke-dashoffset:139.54022217;stroke-opacity:1;paint-order:fill markers stroke"
         d="m -2739.3789,22131.473 a 553.34894,553.34894 0 0 0 -553.3496,553.349 553.34894,553.34894 0 0 0 6.6933,81.242 553.34894,553.34894 0 0 1 552.9043,-540.841 553.34894,553.34894 0 0 1 546.6563,472.107 553.34894,553.34894 0 0 0 0.4434,-12.508 553.34894,553.34894 0 0 0 -553.3477,-553.349 z"
         transform="scale(0.26458333,0.26458333)"
         id="path5953"
         inkscape:connector-curvature="0" />
      <path
         id="path5955"
         d="m -1410.0062,5855.6188 a 146.40691,146.40691 0 0 0 -146.4071,146.4069 146.40691,146.40691 0 0 0 1.7709,21.4953 146.40691,146.40691 0 0 1 146.2893,-143.0975 146.40691,146.40691 0 0 1 144.6361,124.9117 146.40691,146.40691 0 0 0 0.1173,-3.3095 146.40691,146.40691 0 0 0 -146.4065,-146.4069 z"
         style="opacity:0.13265309;fill:#1c1b3b;fill-opacity:1;stroke:#1c1b3b;stroke-width:12;stroke-linecap:round;stroke-linejoin:round;stroke-miterlimit:4;stroke-dasharray:none;stroke-dashoffset:139.54022217;stroke-opacity:1;paint-order:fill markers stroke"
         inkscape:connector-curvature="0" />
      <path
         style="opacity:0.119;fill:#1c1b3b;fill-opacity:1;stroke:#1c1b3b;stroke-width:10.68537426;stroke-linecap:round;stroke-linejoin:round;stroke-miterlimit:4;stroke-dasharray:none;stroke-dashoffset:139.54022217;stroke-opacity:1;paint-order:fill markers stroke"
         d="m -1205.6584,5982.7239 a 205.80607,195.18319 0 0 1 0.4523,12.1126 205.80607,195.18319 0 0 1 -205.8059,195.1831 205.80607,195.18319 0 0 1 -201.0772,-154.679 205.80607,195.18319 0 0 0 205.3538,183.0704 205.80607,195.18319 0 0 0 205.8059,-195.183 205.80607,195.18319 0 0 0 -4.7289,-40.5041 z"
         id="path5957"
         inkscape:connector-curvature="0" />
      <path
         inkscape:connector-curvature="0"
         id="path5959"
         d="m -520.44615,5985.0625 a 205.80607,195.18319 0 0 1 0.4523,12.1126 205.80607,195.18319 0 0 1 -205.8059,195.1831 205.80607,195.18319 0 0 1 -201.0772,-154.679 205.80607,195.18319 0 0 0 205.3538,183.0704 205.80607,195.18319 0 0 0 205.8059,-195.183 205.80607,195.18319 0 0 0 -4.7289,-40.5041 z"
         style="opacity:0.119;fill:#1c1b3b;fill-opacity:1;stroke:#1c1b3b;stroke-width:10.68537426;stroke-linecap:round;stroke-linejoin:round;stroke-miterlimit:4;stroke-dasharray:none;stroke-dashoffset:139.54022217;stroke-opacity:1;paint-order:fill markers stroke" />
      <path
         style="opacity:1;fill:none;fill-opacity:1;stroke:#1c1b3b;stroke-width:10.04696369;stroke-linecap:round;stroke-linejoin:round;stroke-miterlimit:4;stroke-dasharray:none;stroke-dashoffset:139.54022217;stroke-opacity:1;paint-order:fill markers stroke"
         id="path5961"
         transform="scale(1,-1)"
         sodipodi:type="arc"
         sodipodi:cx="-723.34955"
         sodipodi:cy="-6005.5425"
         sodipodi:rx="122.57874"
         sodipodi:ry="122.57874"
         sodipodi:start="0"
         sodipodi:end="1.5707963"
         sodipodi:open="true"
         d="m -600.77081,-6005.5425 a 122.57874,122.57874 0 0 1 -122.57874,122.5788" />
      <path
         d="m 1523.7852,-6005.5425 a 122.57874,122.57874 0 0 1 -122.5788,122.5788"
         sodipodi:open="true"
         sodipodi:end="1.5707963"
         sodipodi:start="0"
         sodipodi:ry="122.57874"
         sodipodi:rx="122.57874"
         sodipodi:cy="-6005.5425"
         sodipodi:cx="1401.2064"
         sodipodi:type="arc"
         transform="scale(-1,-1)"
         id="path5963"
         style="opacity:1;fill:none;fill-opacity:1;stroke:#1c1b3b;stroke-width:10.04696369;stroke-linecap:round;stroke-linejoin:round;stroke-miterlimit:4;stroke-dasharray:none;stroke-dashoffset:139.54022217;stroke-opacity:1;paint-order:fill markers stroke" />
      <circle
         r="146.40691"
         cy="6002.0259"
         cx="-1407.9259"
         id="circle5965"
         style="opacity:1;fill:none;fill-opacity:1;stroke:#1c1b3b;stroke-width:12;stroke-linecap:round;stroke-linejoin:round;stroke-miterlimit:4;stroke-dasharray:none;stroke-dashoffset:139.54022217;stroke-opacity:1;paint-order:fill markers stroke" />
      <circle
         style="opacity:1;fill:none;fill-opacity:1;stroke:#1c1b3b;stroke-width:12;stroke-linecap:round;stroke-linejoin:round;stroke-miterlimit:4;stroke-dasharray:none;stroke-dashoffset:139.54022217;stroke-opacity:1;paint-order:fill markers stroke"
         id="circle5967"
         cx="724.79425"
         cy="6002.0259"
         r="146.40691"
         transform="scale(-1,1)" />
    </g>
  </g>
</svg>
