<svg width="288.3" height="172.8" xmlns="http://www.w3.org/2000/svg">
  <style type="text/css">
    .st0 {
      fill: #e5928d;
    }

    .st1 {
      opacity: 0.3629;
    }

    .st2 {
      fill: #FFFFFF;
      fill-opacity: 0.1059;
    }

    .st3 {
      fill: #FFFFFF;
      fill-opacity: 0.1686;
    }

    .st4 {
      fill: #FFFFFF;
      fill-opacity: 0.4118;
    }

    .st5 {
      fill: #FFFFFF;
      fill-opacity: 0.1412;
    }

    .st6 {
      fill: #FFFFFF;
      fill-opacity: 0.349;
    }

    .st7 {
      fill: #FFFFFF;
      fill-opacity: 0.149;
    }

    .st8 {
      fill: #FFFFFF;
      fill-opacity: 0.1608;
    }

    .st9 {
      fill: #FFFFFF;
      fill-opacity: 0.2;
    }

    .st10 {
      fill: #EBEBEB;
      fill-opacity: 9.803920e-02;
    }
  </style>

  <g>
    <title>Layer 1</title>
    <g opacity="100" transform="matrix(-0.933904,-1.1437e-16,1.20053e-16,-0.98031,490.947,297.046) " id="Rectangle-1">
      <rect fill="#049aa2" id="svg_1" height="176.3" width="308.7" class="st0" y="126.8" x="217" />
    </g>
    <g id="svg_2">
      <g id="svg_3" class="st1">
        <g id="svg_4" transform="matrix(0.500938,0,0,0.500938,-0.59437,-0.183314) ">
          <path id="svg_5"
            d="m31.6,0.1l8.9,0l70.5,31.7l-39.5,-31.7l2.8,0l40.4,32.3l-4.9,-32.3l1.7,0l5.1,33.4l57.9,-33.4l3.5,0l-60.4,34.8l0.1,0.1l49.4,8.6l12.2,-43.5l1.8,0l-12.3,43.8l49.5,8.6l-0.1,-0.2l0.4,-0.2l-37,-52l2.1,0l35.4,49.9l-1.9,-49.9l1.7,0l1.9,48.8l16,-48.8l1.8,0l-16.4,50l52.4,-26.5l2.8,-23.5l1.7,0l-2.7,22.5l13,-6.6l0,2l-13.2,6.7l-5.4,45l18.6,-25.6l0,2.9l-17.3,23.7l-1.4,-1l-0.1,0.5l1.1,0.4l-0.3,0.8l0,0l0.9,-0.1l0.5,4.6l16.2,38.9l-1.6,0.7l-14,-33.7l3.5,34.5l11.3,-0.9l0,0.3l0.9,0.2l-7.7,45.6l0.1,0.9l7.9,1.8l0,1.8l-8.9,-2l-0.2,0.4l-0.1,-0.1l0,0l0.1,0.8l-0.1,0l-0.9,7.8l-1.7,0l0.9,-7.7l-38.1,2.6l-1.7,5l-1.8,0l1.6,-4.9l-19.6,1.4l0.1,3.6l-1.7,0l-0.1,-3.4l-34.1,2.4l0.8,1.1l-2.1,0l-0.7,-0.9l-0.9,0.1l0,-0.4l-2.2,1.2l-3.5,0l3.6,-2.1l-69.6,-17.5l3,19.6l-1.7,0l-3,-19.5l-41.9,11.9l9.5,7.6l-2.8,0l-8.8,-7l-24.8,7l-5.1,0l-31.4,-7.1l0,-1.8l32.3,7.3l-32.4,-54.3l0,-6.2l31.1,-106.5l-31.1,42.7l0,-2.9l30.1,-41.4l-30.1,15.2l0,-1.9l31.1,-15.7l-0.9,-0.3zm4.3,171.6l25.2,-7.1l-56.1,-44.9l30.9,52zm147,-2.6l-0.3,1.1l34.5,-2.4l-1.6,-43.1l-32.6,44.4zm-14.5,-46.4l12.5,46.2l0.4,-0.5l17.7,-55l-4.9,-3.2l-25.7,12.5zm-31.1,15.1l41.8,30.9l-12.3,-45.2l-29.5,14.3zm-28.4,13.8l0.1,0.2l67.2,16.9l-40.6,-30l-26.7,12.9zm109.8,16.1l20.2,-1.4l7.5,-22.9l-29.3,-18.4l1.6,42.7zm22.1,-1.6l37.7,-2.6l0,-0.2l-30.5,-19l-7.2,21.8zm-177.7,-2.1l42,-11.9l-100.4,-34.9l58.4,46.8zm121.5,-0.1l29.8,-40.7l-13.8,-8.9l-16,49.6zm71.4,-44l-7.4,22.6l31,19.4l0.1,-0.4l-4.3,-43.2l-19.4,1.6zm21.1,-1.6l3.7,36.8l6.3,-37.6l-10,0.8zm-269.6,-1.9l99,34.4l0.1,0l-23.6,-50l-75.5,15.6zm100.6,33.4l14.8,-20.5l-37.5,-27.7l22.7,48.2zm2.9,-1.2l22.9,-11.1l-9.7,-7.2l-13.2,18.3zm107,-25.6l-0.3,0.3l29.4,18.4l7.1,-21.6l-36.2,2.9zm-92.7,5.9l10.5,7.7l30.6,-14.9l-9.7,-35.7l-0.4,-0.2l-31,43.1zm-39,-28.8l37.5,27.7l30,-41.6l-67.5,13.9zm130.9,21.2l49.6,-46.5l-63.5,30.9l-2.2,6.9l15.1,9.7l0.1,-0.1l-0.1,-0.8l1,-0.1zm2.8,-0.2l34.7,-2.8l14.1,-43l-48.8,45.8zm-52,-0.1l24.5,-11.9l-33.6,-21.7l9.1,33.6zm88.6,-2.8l18.6,-1.5l-4,-40.2l-0.5,-1.3l-14.1,43zm-253.5,-3.4l1.2,0.4l77.9,-16l-29.3,-21.7l-49.8,37.3zm-0.5,-1.7l49.8,-37.4l-17,-75.2l-32.8,112.6zm193.3,-3.8l3.6,2.3l1.6,-4.9l-5.2,2.6zm-37.7,-24.3l36,23.2l7.6,-3.7l8.1,-25.2l-51.7,5.7zm53.7,-6l-7.9,24.4l62.7,-30.4l-54.8,6zm-128.1,19.2l0.7,0.5l67.8,-14l-77.7,-6.1l9.2,19.6zm-3,-2.2l-8.3,-17.5l-17.3,-1.4l25.6,18.9zm85.7,-50.7l-47.3,-8.2l37.7,46.4l-0.3,-0.6l0.6,-0.3l-1.1,-0.3l10.4,-37zm-97.4,21.9l4.6,9.7l80.7,6.3l-37.5,-46.2l-47.8,30.2zm91.3,15.8l50.2,-5.6l6.9,-21.5l-57.1,27.1zm-2.5,-0.8l59.6,-28.2l-49.3,-8.5l-10.3,36.7zm63.2,-26.9l-0.5,0l-0.1,0.3l-0.8,-0.3l-0.2,0l-7,21.9l55.2,-6.1l-46.7,-16.2l0.1,0.4zm-165.2,20.2l15.8,1.2l-4.1,-8.6l-11.7,7.4zm-3,0.2l0.4,0.5l-0.4,-0.5l0,0zm1,-1l13,-8.2l-28.4,-60.2l15.4,68.4zm167.6,-22.2l-0.2,0.7l47.7,16.6l5.3,-44.1l-52.8,26.8zm-106.4,-17l-77.3,-34.7l30.6,64.8l47.3,-29.8l-0.1,0l-0.5,0.1l0,-0.4z"
            class="st2" />
        </g>
        <g id="svg_6" transform="matrix(0.500938,0,0,0.500938,249.968,-0.183314) ">
          <path id="svg_7"
            d="m-180.5,0.1l8.9,0l70.6,31.7l-39.6,-31.7l2.8,0l40.4,32.3l-4.9,-32.3l1.7,0l5.1,33.4l57.9,-33.4l3.5,0l-60.4,34.8l0.1,0.1l49.4,8.6l12.2,-43.5l1.8,0l-12.3,43.8l49.5,8.6l-0.2,-0.3l0.4,-0.2l-36.9,-51.9l2.1,0l35.4,49.9l-1.9,-49.9l1.7,0l1.9,48.8l16,-48.8l1.8,0l-16.4,50l52.4,-26.5l2.8,-23.5l1.7,0l-2.7,22.5l13,-6.6l0,2l-13.2,6.7l-5.4,45l18.6,-25.6l0,2.9l-17.2,23.8l-1.4,-1l-0.1,0.5l1.1,0.4l-0.3,0.8l0,0l0.9,-0.1l0.5,4.6l16.2,39l-1.6,0.7l-14,-33.7l3.5,34.5l11.3,-0.9l0,0.3l0.9,0.2l-7.7,45.6l0.1,0.9l7.9,1.8l0,1.8l-8.9,-2l-0.2,0.4l-0.1,-0.1l0,0l0.1,0.8l-0.1,0l-0.9,7.8l-1.7,0l0.9,-7.7l-38.1,2.6l-1.7,5l-1.8,0l1.6,-4.9l-19.6,1.4l0.1,3.6l-1.9,0l-0.1,-3.6l-34.1,2.4l0.8,1.1l-2.1,0l-0.7,-0.9l-0.9,0.1l0,-0.4l-2.2,1.2l-3.5,0l3.6,-2.1l-69.6,-17.5l3,19.6l-1.7,0l-3,-19.5l-41.9,11.9l9.5,7.6l-2.8,0l-8.8,-7l-24.8,7l-5.1,0l-31.4,-7.1l0,-1.8l32.3,7.3l-32.3,-54.3l0,-6.2l31.1,-106.4l-31.1,42.7l0,-2.9l30.1,-41.4l-30.1,15.1l0,-1.9l31.1,-15.8l-0.9,-0.2zm4.3,171.6l25.2,-7.1l-56.1,-44.9l30.9,52zm147,-2.6l-0.3,1.1l34.5,-2.4l-1.6,-43.1l-32.6,44.4zm-14.5,-46.4l12.5,46.2l0.4,-0.5l17.7,-55l-4.9,-3.2l-25.7,12.5zm-31.1,15.1l41.8,30.9l-12.3,-45.2l-29.5,14.3zm-28.4,13.8l0.1,0.2l67.2,16.9l-40.6,-30l-26.7,12.9zm109.9,16.1l20.2,-1.4l7.5,-22.9l-29.4,-18.4l1.7,42.7zm22.1,-1.6l37.7,-2.6l0,-0.2l-30.6,-19.1l-7.1,21.9zm-177.8,-2.1l42,-11.9l-100.4,-34.9l58.4,46.8zm121.5,-0.1l29.8,-40.7l-13.8,-8.9l-16,49.6zm71.4,-44l-7.4,22.6l31,19.4l0.1,-0.4l-4.3,-43.2l-19.4,1.6zm21.1,-1.6l3.7,36.8l6.3,-37.6l-10,0.8zm-269.6,-1.9l99,34.4l0.1,0l-23.6,-50l-75.5,15.6zm100.6,33.4l14.8,-20.5l-37.5,-27.7l22.7,48.2zm3,-1.2l22.9,-11.1l-9.7,-7.2l-13.2,18.3zm106.9,-25.6l-0.3,0.3l29.4,18.3l7.1,-21.6l-36.2,3zm-92.7,5.9l10.5,7.7l30.6,-14.9l-9.7,-35.7l-0.4,-0.2l-31,43.1zm-38.9,-28.8l37.5,27.7l30,-41.6l-67.5,13.9zm130.9,21.2l49.6,-46.5l-63.5,30.9l-2.2,6.9l15.1,9.7l0.1,-0.1l-0.1,-0.8l1,-0.1zm2.7,-0.2l34.7,-2.8l14.1,-43l-48.8,45.8zm-52,-0.1l24.5,-11.9l-33.6,-21.7l9.1,33.6zm88.6,-2.8l18.6,-1.5l-4,-40.2l-0.5,-1.3l-14.1,43zm-253.4,-3.4l1.2,0.4l77.9,-16l-29.3,-21.7l-49.8,37.3zm-0.6,-1.7l49.8,-37.4l-17,-75.2l-32.8,112.6zm193.4,-3.8l3.6,2.3l1.6,-4.9l-5.2,2.6zm-37.7,-24.3l36,23.2l7.6,-3.7l8.1,-25.2l-51.7,5.7zm53.6,-6l-7.8,24.4l62.6,-30.4l-54.8,6zm-128.1,19.2l0.7,0.5l67.8,-14l-77.7,-6.1l9.2,19.6zm-2.9,-2.2l-8.3,-17.5l-17.3,-1.4l25.6,18.9zm85.6,-50.7l-47.3,-8.2l37.7,46.4l-0.3,-0.6l0.6,-0.3l-1.1,-0.3l10.4,-37zm-97.4,21.9l4.6,9.7l80.7,6.3l-37.5,-46.2l-47.8,30.2zm91.3,15.8l50.2,-5.6l6.9,-21.4l-57.1,27zm-2.5,-0.8l59.6,-28.1l-49.3,-8.5l-10.3,36.6zm63.2,-26.9l-0.5,0l-0.1,0.3l-0.8,-0.3l-0.2,0l-7,21.9l55.2,-6.1l-46.6,-16.2l0,0.4zm-165.2,20.2l15.8,1.2l-4.1,-8.6l-11.7,7.4zm-3,0.2l0.4,0.5l-0.4,-0.5l0,0zm1.1,-1l13,-8.2l-28.4,-60.2l15.4,68.4zm167.5,-22.2l-0.2,0.7l47.8,16.6l5.3,-44.1l-52.9,26.8zm-106.4,-17l-77.2,-34.7l30.6,64.8l47.3,-29.8l-0.1,0l-0.5,0.1l-0.1,-0.4z"
            class="st2" />
        </g>
        <g id="svg_8" transform="matrix(0.500938,0,0,0.500938,249.968,150.132) ">
          <path id="svg_9"
            d="m-180.5,-127.1l8.9,0l70.6,31.7l-39.6,-31.7l2.8,0l40.4,32.3l-4.9,-32.3l1.7,0l5.1,33.4l57.9,-33.4l3.5,0l-60.4,34.8l0.1,0.1l49.4,8.6l12.2,-43.5l1.8,0l-12.3,43.8l49.5,8.6l-0.2,-0.3l0.4,-0.2l-36.9,-51.9l2.1,0l35.4,49.9l-1.9,-49.9l1.7,0l1.9,48.8l16,-48.8l1.8,0l-16.4,50l52.4,-26.5l2.8,-23.5l1.7,0l-2.7,22.5l13,-6.6l0,1.9l-13.2,6.7l-5.4,45l18.6,-25.6l0,2.9l-17.2,23.9l-1.4,-1l-0.1,0.5l1.1,0.4l-0.3,0.8l0,0l0.9,-0.1l0.5,4.6l16.2,39l-1.6,0.7l-14,-33.7l3.5,34.5l11.3,-0.9l0,0.3l0.9,0.2l-7.7,45.6l0.1,0.9l7.9,1.8l0,1.8l-8.9,-2l-0.2,0.4l-0.1,-0.1l0,0l0.1,0.8l-0.1,0l-0.9,7.8l-1.7,0l0.9,-7.7l-38.1,2.6l-1.7,5l-1.8,0l1.6,-4.9l-19.8,1.3l0.1,3.6l-1.7,0l-0.1,-3.5l-34.1,2.4l0.8,1.1l-2.1,0l-0.7,-0.9l-0.9,0.1l0,-0.4l-2.2,1.2l-3.5,0l3.6,-2.1l-69.6,-17.5l3,19.6l-1.7,0l-3,-19.5l-41.9,11.9l9.5,7.6l-2.8,0l-8.8,-7l-24.8,7l-5.1,0l-31.4,-7.1l0,-1.8l32.3,7.3l-32.3,-54.3l0,-6.2l31.1,-106.4l-31.1,42.7l0,-2.9l30.1,-41.4l-30.1,15.3l0,-1.9l31.1,-15.8l-0.9,-0.4zm4.3,171.6l25.2,-7.1l-56.1,-44.9l30.9,52zm147,-2.6l-0.3,1.1l34.5,-2.4l-1.7,-43.1l-32.5,44.4zm-14.5,-46.5l12.5,46.2l0.4,-0.5l17.7,-55l-4.9,-3.2l-25.7,12.5zm-31.1,15.1l41.8,30.9l-12.2,-45.2l-29.6,14.3zm-28.4,13.8l0.1,0.2l67.2,16.9l-40.6,-30l-26.7,12.9zm109.9,16.1l20.2,-1.4l7.5,-22.9l-29.4,-18.4l1.7,42.7zm22.1,-1.5l37.7,-2.6l0,-0.2l-30.6,-19.1l-7.1,21.9zm-177.8,-2.1l42,-11.9l-100.4,-34.9l58.4,46.8zm121.5,-0.2l29.8,-40.6l-13.8,-8.9l-16,49.5zm71.4,-43.9l-7.4,22.6l31,19.4l0.1,-0.4l-4.3,-43.1l-19.4,1.5zm21.1,-1.7l3.7,36.8l6.3,-37.6l-10,0.8zm-269.6,-1.9l99,34.4l0.1,0l-23.6,-50l-75.5,15.6zm100.6,33.4l14.8,-20.5l-37.5,-27.7l22.7,48.2zm3,-1.1l22.9,-11.1l-9.7,-7.3l-13.2,18.4zm106.9,-25.6l-0.3,0.2l29.4,18.4l7.1,-21.6l-36.2,3zm-92.7,5.8l10.5,7.7l30.6,-14.9l-9.7,-35.7l-0.4,-0.2l-31,43.1zm-38.9,-28.7l37.5,27.7l30,-41.6l-67.5,13.9zm130.9,21.2l49.6,-46.5l-63.6,30.9l-2.2,6.9l15.1,9.7l0.1,-0.1l-0.1,-0.8l1.1,-0.1zm2.7,-0.2l34.7,-2.8l14.1,-43l-48.8,45.8zm-52,-0.2l24.5,-11.9l-33.6,-21.7l9.1,33.6zm88.6,-2.8l18.6,-1.5l-4,-40.2l-0.5,-1.2l-14.1,42.9zm-253.4,-3.3l1.2,0.4l77.9,-16l-29.3,-21.7l-49.8,37.3zm-0.6,-1.7l49.8,-37.4l-17,-75.2l-32.8,112.6zm193.4,-3.9l3.6,2.3l1.6,-4.9l-5.2,2.6zm-37.7,-24.3l36,23.2l7.6,-3.7l8.1,-25.2l-51.7,5.7zm53.6,-5.9l-7.8,24.4l62.6,-30.4l-54.8,6zm-128.1,19.2l0.7,0.5l67.8,-14l-77.7,-6.1l9.2,19.6zm-2.9,-2.2l-8.3,-17.5l-17.3,-1.4l25.6,18.9zm85.6,-50.8l-47.3,-8.2l37.7,46.4l-0.3,-0.6l0.6,-0.3l-1.1,-0.3l10.4,-37zm-97.4,22l4.6,9.7l80.7,6.3l-37.5,-46.2l-47.8,30.2zm91.3,15.8l50.2,-5.6l6.9,-21.5l-57.1,27.1zm-2.5,-0.8l59.6,-28.1l-49.3,-8.5l-10.3,36.6zm63.2,-27l-0.5,0l-0.1,0.3l-0.8,-0.3l-0.2,0l-7,22l55.2,-6.1l-46.6,-16.2l0,0.3zm-165.2,20.3l15.8,1.2l-4.1,-8.6l-11.7,7.4zm-3,0.2l0.4,0.5l-0.4,-0.5l0,0zm1.1,-1l13,-8.2l-28.4,-60.2l15.4,68.4zm167.5,-22.3l-0.2,0.7l47.8,16.6l5.3,-44.1l-52.9,26.8zm-106.4,-16.9l-77.2,-34.7l30.6,64.8l47.3,-29.8l-0.1,0l-0.5,0.1l-0.1,-0.4z"
            class="st2" />
        </g>
        <g id="svg_10" transform="matrix(0.500938,0,0,0.500938,-0.542185,150.132) ">
          <path id="svg_11"
            d="m31.5,-127.1l8.9,0l70.6,31.7l-39.6,-31.7l2.8,0l40.4,32.3l-4.9,-32.3l1.7,0l5.1,33.4l57.9,-33.4l3.5,0l-60.4,34.8l0.1,0.1l49.4,8.6l12.2,-43.5l1.8,0l-12.3,43.8l49.5,8.6l-0.2,-0.3l0.4,-0.2l-36.9,-51.9l2.1,0l35.4,49.9l-1.9,-49.9l1.7,0l1.9,48.8l16,-48.8l1.8,0l-16.4,50l52.4,-26.5l2.8,-23.5l1.7,0l-2.7,22.5l13,-6.6l0,1.9l-13.2,6.7l-5.4,45l18.6,-25.6l0,2.9l-17.3,23.7l-1.4,-1l-0.1,0.5l1.1,0.4l-0.3,0.8l0,0l0.9,-0.1l0.5,4.6l16.3,39.2l-1.6,0.7l-14,-33.7l3.5,34.5l11.3,-0.9l0,0.3l0.9,0.2l-7.7,45.6l0.1,0.9l7.9,1.8l0,1.8l-8.9,-2l-0.2,0.4l-0.1,-0.1l0,0l0.1,0.8l-0.1,0l-0.9,7.8l-1.7,0l0.9,-7.7l-38.1,2.6l-1.7,5l-1.8,0l1.6,-4.9l-19.6,1.4l0.1,3.6l-1.7,0l-0.1,-3.4l-34.1,2.4l0.8,1.1l-2.1,0l-0.7,-0.9l-0.9,0.1l0,-0.4l-2.2,1.2l-3.5,0l3.6,-2.1l-69.6,-17.5l3,19.6l-1.7,0l-3,-19.5l-42.1,11.6l9.5,7.6l-2.8,0l-8.8,-7l-24.8,7l-5.1,0l-31.3,-7.1l0,-1.8l32.3,7.3l-32.3,-54.3l0,-6.2l31.1,-106.4l-31.1,42.7l0,-2.9l30.1,-41.4l-30.1,15.2l0,-1.9l31.1,-15.8l-1,-0.2zm4.4,171.6l25.1,-7.1l-56.1,-45l31,52.1zm146.9,-2.6l-0.3,1.1l34.5,-2.4l-1.6,-43.1l-32.6,44.4zm-14.4,-46.5l12.5,46.2l0.4,-0.5l17.7,-55l-4.9,-3.2l-25.7,12.5zm-31.1,15.1l41.8,30.9l-12.3,-45.2l-29.5,14.3zm-28.4,13.8l0.1,0.2l67.2,16.9l-40.6,-30l-26.7,12.9zm109.8,16.1l20.2,-1.4l7.5,-22.9l-29.3,-18.4l1.6,42.7zm22.1,-1.5l37.7,-2.6l0,-0.2l-30.5,-19.1l-7.2,21.9zm-177.7,-2.1l42,-11.9l-100.5,-34.9l58.5,46.8zm121.4,-0.2l29.8,-40.6l-13.8,-8.9l-16,49.5zm71.5,-43.9l-7.4,22.6l31,19.4l0.1,-0.4l-4.3,-43.2l-19.4,1.6zm21,-1.7l3.7,36.8l6.3,-37.6l-10,0.8zm-269.5,-1.9l99,34.4l0.1,0l-23.6,-49.9l-75.5,15.5zm100.5,33.4l14.8,-20.5l-37.5,-27.7l22.7,48.2zm3,-1.1l22.9,-11.1l-9.7,-7.3l-13.2,18.4zm106.9,-25.6l-0.3,0.2l29.4,18.4l7.1,-21.6l-36.2,3zm-92.7,5.8l10.5,7.7l30.6,-14.9l-9.7,-35.7l-0.4,-0.2l-31,43.1zm-38.9,-28.7l37.5,27.7l30,-41.6l-67.5,13.9zm130.9,21.2l49.6,-46.5l-63.5,30.9l-2.2,6.9l15.1,9.7l0.1,-0.1l-0.1,-0.8l1,-0.1zm2.7,-0.2l34.7,-2.8l14.1,-43l-48.8,45.8zm-52,-0.2l24.5,-11.9l-33.6,-21.7l9.1,33.6zm88.6,-2.8l18.6,-1.5l-4,-40.2l-0.5,-1.3l-14.1,43zm-253.4,-3.3l1.2,0.4l77.9,-16l-29.4,-21.7l-49.7,37.3zm-0.6,-1.7l49.8,-37.4l-17,-75.2l-32.8,112.6zm193.4,-3.9l3.6,2.3l1.6,-4.9l-5.2,2.6zm-37.7,-24.3l36,23.2l7.6,-3.7l8.2,-25.2l-51.8,5.7zm53.6,-5.9l-7.8,24.4l62.6,-30.4l-54.8,6zm-128.1,19.2l0.7,0.5l67.8,-14l-77.7,-6.1l9.2,19.6zm-2.9,-2.2l-8.3,-17.5l-17.2,-1.3l25.5,18.8zm85.6,-50.8l-47.3,-8.2l37.7,46.4l-0.3,-0.6l0.6,-0.3l-1.1,-0.3l10.4,-37zm-97.3,22l4.6,9.7l80.7,6.3l-37.5,-46.2l-47.8,30.2zm91.2,15.8l50.2,-5.6l6.9,-21.5l-57.1,27.1zm-2.4,-0.8l59.6,-28.2l-49.3,-8.5l-10.3,36.7zm63.1,-27l-0.5,0l-0.1,0.3l-0.8,-0.3l-0.2,0l-7,21.9l55.2,-6.1l-46.6,-16.1l0,0.3zm-165.1,20.3l15.8,1.2l-4.1,-8.6l-11.7,7.4zm-3.1,0.2l0.4,0.5l-0.4,-0.5l0,0zm1.1,-1l13,-8.2l-28.4,-60.2l15.4,68.4zm167.5,-22.3l-0.2,0.7l47.8,16.6l5.3,-44.1l-52.9,26.8zm-106.4,-16.9l-77.2,-34.7l30.6,64.8l47.3,-29.8l-0.1,0l-0.5,0.1l-0.1,-0.4z"
            class="st2" />
        </g>
        <g id="svg_12" transform="matrix(0.500938,0,0,0.500938,-269.515,-452.67) ">
          <g transform="matrix(1,0,0,1,538.598,904.155) " id="Ellipse-1">
            <circle id="svg_13" r="2.3" cy="151.8" cx="107.2" class="st3" />
          </g>
          <g transform="matrix(1,0,0,1,538.598,904.155) " id="Ellipse-1-copy">
            <circle id="svg_14" r="2.3" cy="75.8" cx="52.5" class="st4" />
          </g>
          <g transform="matrix(1,0,0,1,538.598,904.155) " id="Ellipse-1-copy-6">
            <circle id="svg_15" r="2.3" cy="169.7" cx="179.8" class="st4" />
          </g>
          <g transform="matrix(1,0,0,1,538.598,904.155) " id="Ellipse-1-copy-2">
            <circle id="svg_16" r="2.3" cy="122.5" cx="215.5" class="st5" />
          </g>
          <g transform="matrix(1,0,0,1,538.598,904.155) " id="Ellipse-1-copy-3">
            <circle id="svg_17" r="2.3" cy="53.3" cx="219.5" class="st6" />
          </g>
          <g transform="matrix(1,0,0,1,538.598,904.155) " id="Ellipse-1-copy-7">
            <circle id="svg_18" r="2.3" cy="71.2" cx="270.2" class="st4" />
          </g>
          <g transform="matrix(1,0,0,1,538.598,904.155) " id="Ellipse-1-copy-8">
            <circle id="svg_19" r="2.3" cy="163.4" cx="278.9" class="st4" />
          </g>
          <g transform="matrix(1,0,0,1,538.598,904.155) " id="Ellipse-1-copy-9">
            <circle id="svg_20" r="2.3" cy="83.9" cx="156.2" class="st4" />
          </g>
          <g transform="matrix(1,0,0,1,538.598,904.155) " id="Ellipse-1-copy-10">
            <circle id="svg_21" r="2.3" cy="115.5" cx="-1.1" class="st7" />
          </g>
          <g transform="matrix(1,0,0,1,538.598,904.155) " id="Ellipse-1-copy-14">
            <circle id="svg_22" r="2.3" cy="115.5" cx="288.1" class="st7" />
          </g>
          <g transform="matrix(1,0,0,1,538.598,904.155) " id="Ellipse-1-copy-4">
            <circle id="svg_23" r="2.3" cy="35.5" cx="116.4" class="st8" />
          </g>
          <g transform="matrix(1,0,0,1,538.598,904.155) " id="Ellipse-1-copy-11">
            <circle id="svg_24" r="2.3" cy="-0.2" cx="34.6" class="st9" />
          </g>
          <g transform="matrix(1,0,0,1,538.598,904.155) " id="Ellipse-1-copy-13">
            <circle id="svg_25" r="2.3" cy="172.6" cx="34.6" class="st4" />
          </g>
          <g transform="matrix(1,0,0,1,538.598,904.155) " id="Ellipse-1-copy-12">
            <circle id="svg_26" r="2.3" cy="174.3" cx="34.6" class="st9" />
          </g>
        </g>
        <g id="svg_27" transform="matrix(0.500938,0,0,0.500938,-18.0316,-452.67) ">
          <g transform="matrix(1,0,0,1,538.598,904.155) " id="Ellipse-11">
            <circle id="svg_28" r="2.3" cy="151.8" cx="-105.6" class="st3" />
          </g>
          <g transform="matrix(1,0,0,1,538.598,904.155) " id="Ellipse-1-copy1">
            <circle id="svg_29" r="2.3" cy="75.8" cx="-160.4" class="st4" />
          </g>
          <g transform="matrix(1,0,0,1,538.598,904.155) " id="Ellipse-1-copy-61">
            <circle id="svg_30" r="2.3" cy="169.7" cx="-33.1" class="st4" />
          </g>
          <g transform="matrix(1,0,0,1,538.598,904.155) " id="Ellipse-1-copy-21">
            <circle id="svg_31" r="2.3" cy="122.5" cx="2.7" class="st5" />
          </g>
          <g transform="matrix(1,0,0,1,538.598,904.155) " id="Ellipse-1-copy-31">
            <circle id="svg_32" r="2.3" cy="53.3" cx="6.7" class="st6" />
          </g>
          <g transform="matrix(1,0,0,1,538.598,904.155) " id="Ellipse-1-copy-71">
            <circle id="svg_33" r="2.3" cy="71.2" cx="57.4" class="st4" />
          </g>
          <g transform="matrix(1,0,0,1,538.598,904.155) " id="Ellipse-1-copy-81">
            <circle id="svg_34" r="2.3" cy="163.4" cx="66" class="st4" />
          </g>
          <g transform="matrix(1,0,0,1,538.598,904.155) " id="Ellipse-1-copy-91">
            <circle id="svg_35" r="2.3" cy="83.9" cx="-56.7" class="st4" />
          </g>
          <g transform="matrix(1,0,0,1,538.598,904.155) " id="Ellipse-1-copy-101">
            <circle id="svg_36" r="2.3" cy="115.5" cx="-213.9" class="st7" />
          </g>
          <g transform="matrix(1,0,0,1,538.598,904.155) " id="Ellipse-1-copy-141">
            <circle id="svg_37" r="2.3" cy="115.5" cx="75.2" class="st7" />
          </g>
          <g transform="matrix(1,0,0,1,538.598,904.155) " id="Ellipse-1-copy-41">
            <circle id="svg_38" r="2.3" cy="35.5" cx="-96.4" class="st8" />
          </g>
          <g transform="matrix(1,0,0,1,538.598,904.155) " id="Ellipse-1-copy-111">
            <circle id="svg_39" r="2.3" cy="-0.2" cx="-178.2" class="st9" />
          </g>
          <g transform="matrix(1,0,0,1,538.598,904.155) " id="Ellipse-1-copy-131">
            <circle id="svg_40" r="2.3" cy="172.6" cx="-178.2" class="st4" />
          </g>
          <g transform="matrix(1,0,0,1,538.598,904.155) " id="Ellipse-1-copy-121">
            <circle id="svg_41" r="2.3" cy="174.3" cx="-178.2" class="st9" />
          </g>
        </g>
        <g id="svg_42" transform="matrix(0.500938,0,0,0.500938,-269.515,-302.328) ">
          <g transform="matrix(1,0,0,1,538.598,904.155) " id="Ellipse-12">
            <circle id="svg_43" r="2.3" cy="24.6" cx="107.2" class="st3" />
          </g>
          <g transform="matrix(1,0,0,1,538.598,904.155) " id="Ellipse-1-copy2">
            <circle id="svg_44" r="2.3" cy="-51.4" cx="52.5" class="st4" />
          </g>
          <g transform="matrix(1,0,0,1,538.598,904.155) " id="Ellipse-1-copy-62">
            <circle id="svg_45" r="2.3" cy="42.4" cx="179.8" class="st4" />
          </g>
          <g transform="matrix(1,0,0,1,538.598,904.155) " id="Ellipse-1-copy-22">
            <circle id="svg_46" r="2.3" cy="-4.8" cx="215.5" class="st5" />
          </g>
          <g transform="matrix(1,0,0,1,538.598,904.155) " id="Ellipse-1-copy-32">
            <circle id="svg_47" r="2.3" cy="-73.9" cx="219.5" class="st6" />
          </g>
          <g transform="matrix(1,0,0,1,538.598,904.155) " id="Ellipse-1-copy-72">
            <circle id="svg_48" r="2.3" cy="-56.1" cx="270.2" class="st4" />
          </g>
          <g transform="matrix(1,0,0,1,538.598,904.155) " id="Ellipse-1-copy-82">
            <circle id="svg_49" r="2.3" cy="36.1" cx="278.9" class="st4" />
          </g>
          <g transform="matrix(1,0,0,1,538.598,904.155) " id="Ellipse-1-copy-92">
            <circle id="svg_50" r="2.3" cy="-43.4" cx="156.2" class="st4" />
          </g>
          <g transform="matrix(1,0,0,1,538.598,904.155) " id="Ellipse-1-copy-102">
            <circle id="svg_51" r="2.3" cy="-11.7" cx="-1.1" class="st7" />
          </g>
          <g transform="matrix(1,0,0,1,538.598,904.155) " id="Ellipse-1-copy-142">
            <circle id="svg_52" r="2.3" cy="-11.7" cx="288.1" class="st7" />
          </g>
          <g transform="matrix(1,0,0,1,538.598,904.155) " id="Ellipse-1-copy-42">
            <circle id="svg_53" r="2.3" cy="-91.8" cx="116.4" class="st8" />
          </g>
          <g transform="matrix(1,0,0,1,538.598,904.155) " id="Ellipse-1-copy-112">
            <circle id="svg_54" r="2.3" cy="-127.5" cx="34.6" class="st9" />
          </g>
          <g transform="matrix(1,0,0,1,538.598,904.155) " id="Ellipse-1-copy-132">
            <circle id="svg_55" r="2.3" cy="45.3" cx="34.6" class="st4" />
          </g>
          <g transform="matrix(1,0,0,1,538.598,904.155) " id="Ellipse-1-copy-122">
            <circle id="svg_56" r="2.3" cy="47" cx="34.6" class="st9" />
          </g>
        </g>
        <g id="svg_57" transform="matrix(0.500938,0,0,0.500938,-18.0316,-302.328) ">
          <g transform="matrix(1,0,0,1,538.598,904.155) " id="Ellipse-13">
            <circle id="svg_58" r="2.3" cy="24.6" cx="-105.6" class="st3" />
          </g>
          <g transform="matrix(1,0,0,1,538.598,904.155) " id="Ellipse-1-copy3">
            <circle id="svg_59" r="2.3" cy="-51.4" cx="-160.4" class="st4" />
          </g>
          <g transform="matrix(1,0,0,1,538.598,904.155) " id="Ellipse-1-copy-63">
            <circle id="svg_60" r="2.3" cy="42.4" cx="-33.1" class="st4" />
          </g>
          <g transform="matrix(1,0,0,1,538.598,904.155) " id="Ellipse-1-copy-23">
            <circle id="svg_61" r="2.3" cy="-4.8" cx="2.7" class="st5" />
          </g>
          <g transform="matrix(1,0,0,1,538.598,904.155) " id="Ellipse-1-copy-33">
            <circle id="svg_62" r="2.3" cy="-73.9" cx="6.7" class="st6" />
          </g>
          <g transform="matrix(1,0,0,1,538.598,904.155) " id="Ellipse-1-copy-73">
            <circle id="svg_63" r="2.3" cy="-56.1" cx="57.4" class="st4" />
          </g>
          <g transform="matrix(1,0,0,1,538.598,904.155) " id="Ellipse-1-copy-83">
            <circle id="svg_64" r="2.3" cy="36.1" cx="66" class="st4" />
          </g>
          <g transform="matrix(1,0,0,1,538.598,904.155) " id="Ellipse-1-copy-93">
            <circle id="svg_65" r="2.3" cy="-43.4" cx="-56.7" class="st4" />
          </g>
          <g transform="matrix(1,0,0,1,538.598,904.155) " id="Ellipse-1-copy-103">
            <circle id="svg_66" r="2.3" cy="-11.7" cx="-213.9" class="st7" />
          </g>
          <g transform="matrix(1,0,0,1,538.598,904.155) " id="Ellipse-1-copy-143">
            <circle id="svg_67" r="2.3" cy="-11.7" cx="75.2" class="st7" />
          </g>
          <g transform="matrix(1,0,0,1,538.598,904.155) " id="Ellipse-1-copy-43">
            <circle id="svg_68" r="2.3" cy="-91.8" cx="-96.4" class="st8" />
          </g>
          <g transform="matrix(1,0,0,1,538.598,904.155) " id="Ellipse-1-copy-113">
            <circle id="svg_69" r="2.3" cy="-127.5" cx="-178.2" class="st9" />
          </g>
          <g transform="matrix(1,0,0,1,538.598,904.155) " id="Ellipse-1-copy-133">
            <circle id="svg_70" r="2.3" cy="45.3" cx="-178.2" class="st4" />
          </g>
          <g transform="matrix(1,0,0,1,538.598,904.155) " id="Ellipse-1-copy-123">
            <circle id="svg_71" r="2.3" cy="47" cx="-178.2" class="st9" />
          </g>
        </g>
        <g id="svg_72" transform="matrix(0.500938,0,0,0.500938,502.721,0.254881) ">
          <g id="svg_73">
            <circle r="2.3" cy="115.5" cx="-426.3" class="st7" id="Ellipse-1-copy-104" />
          </g>
        </g>
        <g id="svg_74" transform="matrix(0.500938,0,0,0.500938,502.721,150.597) ">
          <g id="svg_75">
            <circle r="2.3" cy="-11.7" cx="-426.3" class="st7" id="Ellipse-1-copy-105" />
          </g>
        </g>
      </g>
    </g>
    <circle r="2.3" cy="152.1" cx="107.3" class="st3" id="Ellipse-14" />
    <circle r="2.3" cy="76" cx="52.6" class="st4" id="Ellipse-1-copy4" />
    <circle r="2.3" cy="169.9" cx="179.9" class="st4" id="Ellipse-1-copy-64" />
    <circle r="2.3" cy="122.7" cx="215.6" class="st5" id="Ellipse-1-copy-24" />
    <circle r="2.3" cy="53.6" cx="219.6" class="st6" id="Ellipse-1-copy-34" />
    <circle r="2.3" cy="71.4" cx="270.3" class="st4" id="Ellipse-1-copy-74" />
    <circle r="2.3" cy="163.6" cx="278.9" class="st4" id="Ellipse-1-copy-84" />
    <circle r="2.3" cy="84.1" cx="156.3" class="st4" id="Ellipse-1-copy-94" />
    <circle r="2.3" cy="115.8" cx="-1" class="st7" id="Ellipse-1-copy-106" />
    <circle r="2.3" cy="115.8" cx="288.2" class="st7" id="Ellipse-1-copy-144" />
    <circle r="2.3" cy="35.7" cx="116.5" class="st8" id="Ellipse-1-copy-44" />
    <circle r="2.3" cy="0" cx="34.7" class="st9" id="Ellipse-1-copy-114" />
    <circle r="2.3" cy="172.8" cx="34.7" class="st4" id="Ellipse-1-copy-134" />
    <circle r="2.3" cy="174.5" cx="34.7" class="st9" id="Ellipse-1-copy-124" />
    <path id="svg_76"
      d="m30.9,0l8.9,0l70.6,31.7l-39.6,-31.7l2.8,0l40.4,32.3l-5,-32.3l1.7,0l5.1,33.4l57.9,-33.4l3.5,0l-60.4,34.8l0.1,0.1l49.4,8.6l12.2,-43.5l1.8,0l-12.3,43.7l49.5,8.6l-0.1,-0.2l0.4,-0.2l-36.9,-51.9l2.1,0l35.4,49.9l-1.8,-49.9l1.7,0l1.9,48.8l16,-48.8l1.8,0l-16.4,50l52.4,-26.5l2.8,-23.5l1.7,0l-2.7,22.5l13,-6.6l0,1.9l-13.2,6.7l-5.4,45l18.6,-25.5l0,2.9l-17.3,23.7l-1.4,-1l-0.1,0.5l1.1,0.4l-0.3,0.8l0,0l0.9,-0.1l0.5,4.6l16.2,38.9l-1.6,0.7l-14,-33.7l3.5,34.5l11.3,-0.9l0,0.3l0.9,0.2l-7.7,45.6l0.1,0.9l7.9,1.8l0,1.8l-8.9,-2l-0.2,0.4l-0.1,-0.1l0,0l0.1,0.8l-0.1,0l-0.9,7.8l-1.7,0l0.9,-7.7l-38.1,2.6l-1.7,5l-1.8,0l1.6,-4.9l-19.6,1.4l0.1,3.6l-1.7,0l-0.1,-3.4l-34.1,2.4l0.8,1.1l-2.1,0l-0.7,-0.9l-0.9,0.1l0,-0.4l-2.2,1.2l-3.5,0l3.6,-2.1l-69.6,-17.5l3,19.6l-1.9,0l-3,-19.5l-41.9,11.9l9.5,7.6l-2.8,0l-8.8,-7l-24.8,7l-5.1,0l-31.4,-7.1l0,-1.8l32.3,7.3l-32.2,-54.4l0,-6.2l31,-106.4l-31,42.6l0,-2.9l30.1,-41.4l-30.1,15.3l0,-1.9l31.1,-15.8l-1,-0.2zm4.3,171.6l25.2,-7.1l-56.1,-45l30.9,52.1zm147,-2.6l-0.3,1.1l34.5,-2.4l-1.6,-43.1l-32.6,44.4zm-14.5,-46.5l12.5,46.2l0.4,-0.5l17.7,-55l-4.9,-3.2l-25.7,12.5zm-31.1,15.1l41.8,30.9l-12.3,-45.2l-29.5,14.3zm-28.3,13.8l0.1,0.2l67.2,16.9l-40.6,-30l-26.7,12.9zm109.8,16.1l20.2,-1.4l7.5,-22.9l-29.4,-18.4l1.7,42.7zm22.1,-1.5l37.7,-2.6l0,-0.2l-30.6,-19.1l-7.1,21.9zm-177.7,-2.1l42,-11.9l-100.5,-35l58.5,46.9zm121.4,-0.2l29.8,-40.7l-13.8,-8.9l-16,49.6zm71.4,-43.9l-7.4,22.6l31,19.4l0.1,-0.4l-4.3,-43.2l-19.4,1.6zm21.1,-1.7l3.7,36.8l6.3,-37.6l-10,0.8zm-269.5,-1.9l99,34.4l0.1,0l-23.6,-50l-75.5,15.6zm100.5,33.4l14.8,-20.5l-37.5,-27.7l22.7,48.2zm3,-1.1l22.9,-11.1l-9.7,-7.2l-13.2,18.3zm106.9,-25.7l-0.3,0.3l29.4,18.4l7.1,-21.6l-36.2,2.9zm-92.7,5.9l10.5,7.7l30.6,-14.9l-9.7,-35.6l-0.4,-0.2l-31,43zm-38.9,-28.7l37.5,27.7l30,-41.6l-67.5,13.9zm130.9,21.2l49.6,-46.5l-63.5,30.9l-2.2,6.9l15.1,9.7l0.1,-0.1l-0.1,-0.8l1,-0.1zm2.7,-0.3l34.7,-2.8l14.1,-43l-48.8,45.8zm-52,-0.1l24.5,-11.9l-33.6,-21.7l9.1,33.6zm88.6,-2.8l18.6,-1.5l-4,-40.2l-0.5,-1.3l-14.1,43zm-253.4,-3.3l1.2,0.4l77.9,-16l-29.4,-21.7l-49.7,37.3zm-0.6,-1.7l49.8,-37.4l-17,-75.2l-32.8,112.6zm193.4,-3.9l3.6,2.3l1.6,-4.9l-5.2,2.6zm-37.7,-24.3l36,23.2l7.6,-3.7l8.1,-25.2l-51.7,5.7zm53.6,-5.9l-7.9,24.4l62.7,-30.5l-54.8,6.1zm-128.1,19.2l0.7,0.5l67.8,-14l-77.7,-6.1l9.2,19.6zm-2.9,-2.2l-8.3,-17.5l-17.3,-1.4l25.6,18.9zm85.6,-50.8l-47.3,-8.2l37.7,46.4l-0.3,-0.6l0.6,-0.3l-1.1,-0.3l10.4,-37zm-97.3,21.9l4.6,9.7l80.7,6.3l-37.5,-46.2l-47.8,30.2zm91.2,15.8l50.2,-5.6l6.9,-21.5l-57.1,27.1zm-2.5,-0.7l59.6,-28.2l-49.3,-8.5l-10.3,36.7zm63.2,-27l-0.5,0l-0.1,0.3l-0.8,-0.3l-0.2,0l-7,21.9l55.2,-6l-46.6,-16.2l0,0.3zm-165.2,20.3l15.8,1.2l-4,-8.6l-11.8,7.4zm-3,0.1l0.4,0.5l-0.4,-0.5l0,0zm1.1,-0.9l13,-8.2l-28.5,-60.2l15.5,68.4zm167.5,-22.3l-0.2,0.7l47.8,16.7l5.3,-44.1l-52.9,26.7zm-106.4,-16.9l-77.2,-34.7l30.6,64.8l47.2,-29.9l-0.1,0l-0.5,0.1l0,-0.3z"
      class="st10" />
  </g>
</svg>